<svg width="252" height="251" viewBox="0 0 252 251" fill="none" xmlns="http://www.w3.org/2000/svg">
<path d="M245.283 38.0573C247.383 36.0324 249.058 33.6099 250.212 30.9311C251.365 28.2523 251.972 25.3709 251.999 22.455C252.026 19.539 251.471 16.6469 250.367 13.9475C249.263 11.2481 247.632 8.79531 245.57 6.73237C243.507 4.66942 241.054 3.0376 238.353 1.93211C235.652 0.826614 232.758 0.269603 229.84 0.293557C226.922 0.317512 224.037 0.921959 221.355 2.07163C218.673 3.22131 216.247 4.89319 214.218 6.98971L126.124 94.9803L38.0599 6.98971C36.0477 4.83206 33.6212 3.10147 30.925 1.90117C28.2289 0.700865 25.3184 0.0554444 22.3672 0.00341772C19.416 -0.048609 16.4846 0.493825 13.7478 1.59835C11.0109 2.70287 8.52479 4.34686 6.43765 6.43225C4.35052 8.51763 2.70514 11.0017 1.59969 13.7362C0.49424 16.4707 -0.0486498 19.3997 0.00342059 22.3485C0.055491 25.2972 0.701454 28.2052 1.90276 30.8991C3.10407 33.5929 4.83612 36.0175 6.99559 38.028L95.0015 126.048L6.93698 214.038C3.05452 218.201 0.940872 223.708 1.04134 229.397C1.14181 235.087 3.44855 240.515 7.47557 244.538C11.5026 248.562 16.9355 250.867 22.6297 250.967C28.3239 251.068 33.8347 248.956 38.0013 245.077L126.124 157.086L214.189 245.106C218.356 248.985 223.866 251.097 229.561 250.997C235.255 250.896 240.688 248.591 244.715 244.568C248.742 240.544 251.048 235.116 251.149 229.426C251.249 223.737 249.136 218.231 245.253 214.068L157.247 126.048L245.283 38.0573Z" fill="#F8F8F8"/>
</svg>
