<svg width="767" height="894" viewBox="0 0 767 894" fill="none" xmlns="http://www.w3.org/2000/svg">
<path d="M473.257 703.273H766V765.182H473.257H470.844L472.55 766.889L554.858 849.264L511.571 892.585L353.342 734.227L511.571 575.869L554.858 619.191L472.55 701.566L470.844 703.273H473.257ZM321 415.682H574.429V477.591H321V415.682ZM321 192H574.429V253.909H321V192Z" stroke="white" stroke-width="2"/>
<path d="M126.833 830.143V831.143H127.833H286.625V893H127.833C93.2306 893 64.9167 864.711 64.9167 830.143V702.429V701.429H63.9167H1V639.571H63.9167H64.9167V638.571V478.929V477.929H63.9167H1V416.071H63.9167H64.9167V415.071V255.429V254.429H63.9167H1V192.571H63.9167H64.9167V191.571V63.8571C64.9167 29.2889 93.2306 1 127.833 1H703.083C737.686 1 766 29.2889 766 63.8571V573.714H704.083V63.8571V62.8571H703.083H127.833H126.833V63.8571V191.571V192.571H127.833H190.75V254.429H127.833H126.833V255.429V415.071V416.071H127.833H190.75V477.929H127.833H126.833V478.929V638.571V639.571H127.833H190.75V701.429H127.833H126.833V702.429V830.143Z" stroke="white" stroke-width="2"/>
</svg>
