<svg width="1594" height="150" viewBox="0 0 1594 150" fill="none" xmlns="http://www.w3.org/2000/svg">
<path d="M75.6078 148V90.6H24.8078V148H0.807813V12H24.8078V67.6H75.6078V12H99.6078V148H75.6078ZM218.136 91.2V103.2C218.136 117.333 214.269 128.667 206.536 137.2C198.803 145.733 187.869 150 173.736 150C159.603 150 148.669 145.733 140.936 137.2C133.203 128.667 129.336 117.333 129.336 103.2V91.2C129.336 77.0667 133.136 65.8 140.736 57.4C148.469 48.8667 159.469 44.6 173.736 44.6C188.003 44.6 198.936 48.8667 206.536 57.4C214.269 65.8 218.136 77.0667 218.136 91.2ZM194.536 91.2C194.536 83.0667 192.736 76.7333 189.136 72.2C185.536 67.5333 180.403 65.2 173.736 65.2C167.069 65.2 161.936 67.5333 158.336 72.2C154.736 76.7333 152.936 83.0667 152.936 91.2V103.2C152.936 111.333 154.736 117.733 158.336 122.4C161.936 127.067 167.069 129.4 173.736 129.4C180.403 129.4 185.536 127.067 189.136 122.4C192.736 117.733 194.536 111.333 194.536 103.2V91.2ZM267.925 77.8V148H244.925V46.6H266.725V60C272.992 54.5333 278.792 50.6 284.125 48.2C289.458 45.8 294.925 44.6 300.525 44.6C312.925 44.6 321.392 50.0667 325.925 61C332.592 55.1333 338.792 50.9333 344.525 48.4C350.258 45.8667 356.058 44.6 361.925 44.6C371.258 44.6 378.392 47.7333 383.325 54C388.258 60.1333 390.725 68.8 390.725 80V148H367.725V82.8C367.725 71.6 363.458 66 354.925 66C351.592 66 347.925 66.8 343.925 68.4C339.925 70 335.058 73.1333 329.325 77.8V148H306.325V82.8C306.325 71.6 302.058 66 293.525 66C290.192 66 286.525 66.8 282.525 68.4C278.525 70 273.658 73.1333 267.925 77.8ZM499.097 142.2C492.164 145 485.63 147 479.497 148.2C473.364 149.4 467.564 150 462.097 150C447.03 150 435.63 145.733 427.897 137.2C420.164 128.667 416.297 117.333 416.297 103.2V91.2C416.297 81.7333 418.03 73.5333 421.497 66.6C424.964 59.6667 429.897 54.2667 436.297 50.4C442.697 46.5333 450.23 44.6 458.897 44.6C465.964 44.6 472.564 46.0667 478.697 49C484.964 51.8 490.03 56.2667 493.897 62.4C497.897 68.4 499.897 76.1333 499.897 85.6C499.897 88.4 499.697 91.4 499.297 94.6C498.897 97.6667 498.23 100.933 497.297 104.4H438.497C438.764 112.667 440.83 118.867 444.697 123C448.564 127.133 454.764 129.2 463.297 129.2C467.83 129.2 472.497 128.667 477.297 127.6C482.23 126.533 487.297 124.933 492.497 122.8L499.097 142.2ZM458.897 64C452.764 64 447.964 66 444.497 70C441.164 73.8667 439.23 79.4667 438.697 86.8H477.097C477.23 86.1333 477.297 85.5333 477.297 85C477.297 84.3333 477.297 83.7333 477.297 83.2C477.297 76.8 475.497 72 471.897 68.8C468.297 65.6 463.964 64 458.897 64ZM553.194 65.8L560.794 116.2L587.994 12H609.594L636.594 115.4L644.994 65.8L655.394 12H679.794L649.194 148H624.594L598.394 46.8L571.994 148H547.394L516.794 12H542.794L553.194 65.8ZM779.753 91.2V103.2C779.753 117.333 775.886 128.667 768.153 137.2C760.42 145.733 749.486 150 735.353 150C721.22 150 710.286 145.733 702.553 137.2C694.82 128.667 690.953 117.333 690.953 103.2V91.2C690.953 77.0667 694.753 65.8 702.353 57.4C710.086 48.8667 721.086 44.6 735.353 44.6C749.62 44.6 760.553 48.8667 768.153 57.4C775.886 65.8 779.753 77.0667 779.753 91.2ZM756.153 91.2C756.153 83.0667 754.353 76.7333 750.753 72.2C747.153 67.5333 742.02 65.2 735.353 65.2C728.686 65.2 723.553 67.5333 719.953 72.2C716.353 76.7333 714.553 83.0667 714.553 91.2V103.2C714.553 111.333 716.353 117.733 719.953 122.4C723.553 127.067 728.686 129.4 735.353 129.4C742.02 129.4 747.153 127.067 750.753 122.4C754.353 117.733 756.153 111.333 756.153 103.2V91.2ZM863.742 67.6C857.476 67.6 851.476 68.6 845.742 70.6C840.142 72.4667 834.742 75.5333 829.542 79.8V148H806.542V46.6H828.342V62.2C835.142 55.8 841.209 51.2667 846.542 48.6C851.876 45.9333 857.609 44.6 863.742 44.6V67.6ZM945.486 148L920.486 105.8C916.486 109.8 912.286 113.8 907.886 117.8V148H884.886V-1.90735e-06H907.886V92.4C915.486 84.6667 922.019 77.2667 927.486 70.2C933.086 63 938.219 55.1333 942.886 46.6H969.286C964.886 54.6 960.086 62.2 954.886 69.4C949.686 76.6 943.953 83.8667 937.686 91.2L973.286 148H945.486ZM1009.73 148H985.531V124.2H1009.73V148Z" fill="white"/>
<path d="M1113.32 148V90.6H1062.52V148H1038.52V12H1062.52V67.6H1113.32V12H1137.32V148H1113.32ZM1255.85 91.2V103.2C1255.85 117.333 1251.98 128.667 1244.25 137.2C1236.51 145.733 1225.58 150 1211.45 150C1197.31 150 1186.38 145.733 1178.65 137.2C1170.91 128.667 1167.05 117.333 1167.05 103.2V91.2C1167.05 77.0667 1170.85 65.8 1178.45 57.4C1186.18 48.8667 1197.18 44.6 1211.45 44.6C1225.71 44.6 1236.65 48.8667 1244.25 57.4C1251.98 65.8 1255.85 77.0667 1255.85 91.2ZM1232.25 91.2C1232.25 83.0667 1230.45 76.7333 1226.85 72.2C1223.25 67.5333 1218.11 65.2 1211.45 65.2C1204.78 65.2 1199.65 67.5333 1196.05 72.2C1192.45 76.7333 1190.65 83.0667 1190.65 91.2V103.2C1190.65 111.333 1192.45 117.733 1196.05 122.4C1199.65 127.067 1204.78 129.4 1211.45 129.4C1218.11 129.4 1223.25 127.067 1226.85 122.4C1230.45 117.733 1232.25 111.333 1232.25 103.2V91.2ZM1305.64 77.8V148H1282.64V46.6H1304.44V60C1310.7 54.5333 1316.5 50.6 1321.84 48.2C1327.17 45.8 1332.64 44.6 1338.24 44.6C1350.64 44.6 1359.1 50.0667 1363.64 61C1370.3 55.1333 1376.5 50.9333 1382.24 48.4C1387.97 45.8667 1393.77 44.6 1399.64 44.6C1408.97 44.6 1416.1 47.7333 1421.04 54C1425.97 60.1333 1428.44 68.8 1428.44 80V148H1405.44V82.8C1405.44 71.6 1401.17 66 1392.64 66C1389.3 66 1385.64 66.8 1381.64 68.4C1377.64 70 1372.77 73.1333 1367.04 77.8V148H1344.04V82.8C1344.04 71.6 1339.77 66 1331.24 66C1327.9 66 1324.24 66.8 1320.24 68.4C1316.24 70 1311.37 73.1333 1305.64 77.8ZM1483.41 27.4H1459.21V3.59999H1483.41V27.4ZM1482.81 148H1459.81V46.6H1482.81V148ZM1592.5 142.2C1585.56 145 1579.03 147 1572.9 148.2C1566.76 149.4 1560.96 150 1555.5 150C1540.43 150 1529.03 145.733 1521.3 137.2C1513.56 128.667 1509.7 117.333 1509.7 103.2V91.2C1509.7 81.7333 1511.43 73.5333 1514.9 66.6C1518.36 59.6667 1523.3 54.2667 1529.7 50.4C1536.1 46.5333 1543.63 44.6 1552.3 44.6C1559.36 44.6 1565.96 46.0667 1572.1 49C1578.36 51.8 1583.43 56.2667 1587.3 62.4C1591.3 68.4 1593.3 76.1333 1593.3 85.6C1593.3 88.4 1593.1 91.4 1592.7 94.6C1592.3 97.6667 1591.63 100.933 1590.7 104.4H1531.9C1532.16 112.667 1534.23 118.867 1538.1 123C1541.96 127.133 1548.16 129.2 1556.7 129.2C1561.23 129.2 1565.9 128.667 1570.7 127.6C1575.63 126.533 1580.7 124.933 1585.9 122.8L1592.5 142.2ZM1552.3 64C1546.16 64 1541.36 66 1537.9 70C1534.56 73.8667 1532.63 79.4667 1532.1 86.8H1570.5C1570.63 86.1333 1570.7 85.5333 1570.7 85C1570.7 84.3333 1570.7 83.7333 1570.7 83.2C1570.7 76.8 1568.9 72 1565.3 68.8C1561.7 65.6 1557.36 64 1552.3 64Z" fill="#FFC700"/>
</svg>
